<svg xmlns="http://www.w3.org/2000/svg" viewBox="0 0 235.59 184.68"><defs><style>.a{isolation:isolate;}.b{fill:#d6e7b2;mix-blend-mode:multiply;}.c{fill:#654d53;}</style></defs><title>arachne-logo</title><g class="a"><rect class="b" x="961.67" y="180.84" width="110.98" height="3.6" transform="translate(-450.72 917.7) rotate(-66.23)"/><rect class="b" x="982.33" y="163.62" width="3.6" height="85.53" transform="translate(-800.06 545.56) rotate(-39.16)"/><path class="b" d="M1059.6,205.15a53.15,53.15,0,0,1-46-79.81l3.11,1.81a49.55,49.55,0,0,0,42.85,74.4c1.21,0,2.43,0,3.63-.13l0.26,3.59C1062.21,205.11,1060.9,205.15,1059.6,205.15Z" transform="translate(-890.74 -122.2)"/><path class="b" d="M1064.47,199.3a84.57,84.57,0,0,0-9.31-16.11,84.11,84.11,0,0,0-89.69-31.42L965,150.11a85.94,85.94,0,0,1,101,48.5Z" transform="translate(-890.74 -122.2)"/><path class="c" d="M967,213.93l-5.36-2.08a88,88,0,0,1,101.21-53.94l-1.26,5.61a82.55,82.55,0,0,0-18.05-2A82.1,82.1,0,0,0,967,213.93Z" transform="translate(-890.74 -122.2)"/><path class="c" d="M967.24,214.58l-6.29-2.44,0.18-.47a88.45,88.45,0,0,1,101.79-54.25l0.49,0.11-1.48,6.58-0.49-.11a82.06,82.06,0,0,0-17.95-2,81.6,81.6,0,0,0-76.08,52.08Zm-5-3,4.42,1.72a82.7,82.7,0,0,1,94.5-50.36l1-4.63a87.83,87.83,0,0,0-18.71-2A87.34,87.34,0,0,0,962.24,211.57Z" transform="translate(-890.74 -122.2)"/><path class="b" d="M987,233l-2.07.4a52.87,52.87,0,0,1,82.81-52.79l-1.23,1.71A50.76,50.76,0,0,0,987,233Z" transform="translate(-890.74 -122.2)"/><path class="c" d="M998,175.83l-16.79-40.71-6.24,2.57,8.48,20.56-30.4,73c-0.77,1.87-2,2.2-4.36,2.2h-1.9v5.57h2c6.62,0,8.55-1.23,10.88-6.94l23-55.3c0.07-.16,1.64-4,1.83-4.55,0.14-.37,1.25-3.6,2-5.85l0.14-.43,2.75,6.66,3,7.32A68,68,0,0,1,998,175.83Z" transform="translate(-890.74 -122.2)"/><path class="c" d="M1025,233.48c-1.76,0-2.9-.19-3.68-1.07l-22.19-53.8c-1.67,1.24-3.83,2.91-5.48,4.41l1.45,3.52,0.59,1.43,20.09,48.7,0.6-.25c1.75,2.06,4.08,2.62,8.49,2.62h2v-5.57H1025Z" transform="translate(-890.74 -122.2)"/><path class="b" d="M974.5,225.35l-2.3-2.77a72.87,72.87,0,0,1,80.66-8.2l-1.69,3.18A69.27,69.27,0,0,0,974.5,225.35Z" transform="translate(-890.74 -122.2)"/><path class="c" d="M941.14,280.16a1.23,1.23,0,0,0-1.35-1.35H937.2v-3.63h4.31c2.59,0,3.76,1,3.76,3.51v2.09a22.34,22.34,0,0,1-.12,2.34h0.12c1.48-4.68,4.93-8.25,9.79-8.25a8.37,8.37,0,0,1,1.66.18v4.12a10.6,10.6,0,0,0-1.54-.12c-4.37,0-7.63,3.45-9,8a20.43,20.43,0,0,0-.86,6v13.05h-4.19v-26Z" transform="translate(-890.74 -122.2)"/><path class="c" d="M977.47,287.05h1.72v-0.37c0-6.46-2.34-8.74-8-8.74-1.54,0-6,.43-6,2.71v2h-4v-3c0-4.31,7.39-5.23,10.1-5.23,9.79,0,12.13,5.23,12.13,11.88v14.84a1.21,1.21,0,0,0,1.35,1.35h2.59v3.63h-4.25c-2.65,0-3.69-1.17-3.69-3.69,0-1.35.06-2.28,0.06-2.28h-0.12A11,11,0,0,1,969,306.88c-5.17,0-10.53-3-10.53-9.17C958.51,287.42,972.11,287.05,977.47,287.05Zm-7.76,16.25c5.91,0,9.48-6.16,9.48-11.51v-1.42h-1.79c-4.86,0-14.59.12-14.59,7.08C962.82,300.35,965.09,303.31,969.71,303.31Z" transform="translate(-890.74 -122.2)"/><path class="c" d="M1007.39,274.43c3.51,0,11,1.48,11,6.59v2.77h-3.94V282c0-2.59-4.49-3.82-7.08-3.82-6.65,0-12,5-12,12.5s5.6,12.37,12.13,12.37a13.7,13.7,0,0,0,10-4.37l2,3.14a16.35,16.35,0,0,1-12.13,5c-9.24,0-16.25-6.59-16.25-16.19S998.15,274.43,1007.39,274.43Z" transform="translate(-890.74 -122.2)"/><path class="c" d="M1026.11,267.84a1.23,1.23,0,0,0-1.35-1.35h-2.59v-3.63h4.37c2.65,0,3.76,1.11,3.76,3.63V279.6c0,1.42-.12,2.52-0.12,2.52h0.12a13.24,13.24,0,0,1,12.25-7.7c7.7,0,10.4,4.37,10.4,12v14.71a1.21,1.21,0,0,0,1.35,1.35h2.59v3.63h-4.37c-2.65,0-3.76-1.11-3.76-3.76V287.55c0-4.86-.74-9.17-6.77-9.17a11.74,11.74,0,0,0-11.21,8.8,14.58,14.58,0,0,0-.49,4.12v14.84h-4.19V267.84Z" transform="translate(-890.74 -122.2)"/><path class="c" d="M1063.54,280.16a1.23,1.23,0,0,0-1.35-1.35h-2.59v-3.63h4.31c2.59,0,3.76,1.11,3.76,3.45V280a19.92,19.92,0,0,1-.12,2.22h0.12a13.15,13.15,0,0,1,12.31-7.82c7.7,0,10.4,4.37,10.4,12v14.71a1.21,1.21,0,0,0,1.35,1.35h2.59v3.63h-4.37c-2.65,0-3.76-1.11-3.76-3.76V287.55c0-4.86-.74-9.17-6.71-9.17a11.77,11.77,0,0,0-11.27,8.74,15.31,15.31,0,0,0-.49,4.19v14.84h-4.19v-26Z" transform="translate(-890.74 -122.2)"/><path class="c" d="M1113.34,274.43c8.56,0,13,6.59,13,14.28,0,0.74-.12,2.09-0.12,2.09h-23.76c0.12,7.82,5.6,12.31,12,12.31a13.8,13.8,0,0,0,9.3-3.82l2,3.14a17.57,17.57,0,0,1-11.51,4.43c-9.17,0-16.19-6.65-16.19-16.19C1098.08,280.53,1105,274.43,1113.34,274.43Zm8.68,13.05c-0.25-6.4-4.19-9.54-8.74-9.54-5.11,0-9.6,3.32-10.65,9.54H1122Z" transform="translate(-890.74 -122.2)"/><path class="c" d="M933.38,302c-1.26,0-1.54-.19-1.8-0.82L923,280.58c-1.36.62-2.82,1.42-4.13,2.12l8,19.34c1.34,3.29,2.6,4.1,6.39,4.1H935V302h-1.61Z" transform="translate(-890.74 -122.2)"/><path class="c" d="M915.14,281.87a46.49,46.49,0,0,1,7-3.53l-7-16.93h-4.36l-16.53,39.73c-0.25.62-.54,0.82-1.8,0.82h-1.61v4.18h1.68c3.79,0,5.05-.8,6.39-4.09l0.54-1.29,0.08,0a39.59,39.59,0,0,1,15.71-18.91h0Zm-8.07.32,4.1-9.87s0.89-2.17,1-2.47,0.37-1.05.69-2l0.49,1.39c0.06,0.17,1.45,3.53,2.8,6.81A39.52,39.52,0,0,0,907.07,282.19Z" transform="translate(-890.74 -122.2)"/><path class="c" d="M1011.13,122.2a59.73,59.73,0,0,0-52.67,87.93l4.16-9.91a51.87,51.87,0,1,1,1.69,4l-3.88,9.32A59.74,59.74,0,1,0,1011.13,122.2Z" transform="translate(-890.74 -122.2)"/></g></svg>